<svg xmlns="http://www.w3.org/2000/svg" width="125" height="20" viewBox="0 0 125 20">
    <g fill="none">
        <path fill="#222" d="M124.439 18.319c.082.093.128.213.128.337 0 .28-.227.507-.507.507h-4.095c-.144 0-.282-.061-.378-.17l-5.537-6.206h-4.907v5.87c0 .28-.227.506-.507.506h-3.172c-.28 0-.507-.227-.507-.507V.516c0-.28.227-.508.507-.508h9.933c5.107 0 8.407 2.53 8.407 6.443 0 1.206-.4 4.625-4.714 5.873l5.349 5.995zM96.8 10.999V.52c0-.28.227-.507.507-.507h3.211c.28 0 .507.227.507.507V11c0 5.304-3.88 8.732-10.011 8.732-6.11 0-9.989-3.347-9.989-8.733V.52c0-.28.227-.507.507-.507h3.212c.28 0 .507.227.507.507V11c0 3.032 1.94 4.506 5.763 4.506 3.73 0 5.786-1.643 5.786-4.507zM73.102.171c.097-.109.235-.171.38-.171h4.287c.124 0 .244.045.336.127.21.186.23.506.044.716l-7.843 8.865 7.768 8.738c.082.093.128.213.128.337 0 .28-.227.507-.507.507h-4.297c-.145 0-.282-.062-.379-.17l-5.538-6.23-5.535 6.23c-.096.108-.234.17-.379.17h-4.296c-.124 0-.244-.045-.336-.128-.21-.186-.229-.506-.043-.716l7.763-8.738L56.788.844C56.706.75 56.66.63 56.66.507c0-.28.227-.507.507-.507h4.294c.145 0 .283.062.38.17l5.64 6.356L73.102.171zM40.037.267c.089-.164.26-.267.447-.267h3.775c.186 0 .358.103.446.267l9.83 18.276c.04.074.06.156.06.24 0 .28-.227.507-.507.507h-3.646c-.187 0-.358-.102-.447-.267L47.75 14.85H36.988l-2.247 4.175c-.088.164-.26.266-.446.266h-3.647c-.084 0-.166-.02-.24-.06-.247-.133-.34-.44-.207-.687L40.037.267zm-1.077 10.92h6.82L42.371 4.85l-3.411 6.338zm70.195-7.53l-.012 5.482h6.097c1.96 0 3.001-.465 3.529-.855.586-.434.836-.98.836-1.827 0-.657-.315-2.8-4.365-2.8h-6.085z"/>
        <path fill="#C92828" d="M30.276.222l-9.94 18.445c-.111.206-.034.462.171.573.062.033.13.05.2.05h3.854c.155 0 .298-.085.372-.222L34.873.623c.111-.205.034-.462-.171-.572-.062-.034-.13-.051-.2-.051h-3.854c-.155 0-.298.085-.372.222z"/>
        <path fill="#FF5824" d="M20.136.222l-9.941 18.445c-.11.206-.034.462.171.573.062.033.13.05.2.05h3.854c.155 0 .298-.085.372-.222L24.732.623c.111-.205.035-.462-.17-.572C24.5.017 24.43 0 24.36 0h-3.854c-.155 0-.298.085-.371.222z"/>
        <path fill="#FA9043" d="M9.995.222L.055 18.667c-.112.206-.035.462.17.573.062.033.131.05.201.05h3.853c.155 0 .298-.085.372-.222L14.591.623c.112-.205.035-.462-.17-.572C14.358.017 14.29 0 14.22 0h-3.853c-.156 0-.299.085-.372.222z"/>
    </g>
</svg>
